<?xml version="1.0" encoding="utf-8"?>
<!-- Generator: Adobe Illustrator 24.1.3, SVG Export Plug-In . SVG Version: 6.00 Build 0)  -->
<svg version="1.1" id="Capa_1" xmlns="http://www.w3.org/2000/svg" xmlns:xlink="http://www.w3.org/1999/xlink" x="0px" y="0px"
	 viewBox="0 0 512 512" style="enable-background:new 0 0 512 512;" xml:space="preserve">
<style type="text/css">
	.st0{fill:#F1CDB3;}
</style>
<g>
	<g>
		<path class="st0" d="M492.1,170.4L261.9,1.9c-3.5-2.6-8.3-2.6-11.8,0L19.9,170.4c-4.5,3.3-5.4,9.5-2.2,14l30.1,41.1
			c1.6,2.1,3.9,3.6,6.5,4c2.6,0.4,5.3-0.2,7.4-1.8l9.1-6.6v281c0,5.5,4.5,10,10,10h350.7c5.5,0,10-4.5,10-10V221.4l8.5,6.3
			c1.7,1.3,3.8,1.9,5.9,1.9c0.5,0,1,0,1.5-0.1c2.6-0.4,5-1.8,6.5-4l30.1-41.1C497.5,179.9,496.5,173.6,492.1,170.4z M421.6,453H185
			c-5.5,0-10,4.5-10,10s4.5,10,10,10h236.6v19H90.9V214.2h234.2c5.5,0,10-4.5,10-10s-4.5-10-10-10H107.5L256,85.5l165.6,121.2V453z
			 M453.9,205.6l-16.4-12c0,0,0,0,0,0L261.9,65.1c-1.8-1.3-3.8-1.9-5.9-1.9s-4.1,0.6-5.9,1.9l-192,140.5l-18.3-25L256,22.4
			l216.2,158.2L453.9,205.6z"/>
	</g>
</g>
<g>
	<g>
		<path class="st0" d="M370.9,202.3c-0.1-0.6-0.3-1.3-0.6-1.9c-0.3-0.6-0.6-1.2-0.9-1.7c-0.4-0.6-0.8-1.1-1.2-1.5
			c-1.9-1.9-4.4-2.9-7.1-2.9s-5.2,1.1-7.1,2.9c-0.5,0.5-0.9,1-1.2,1.5c-0.4,0.5-0.7,1.1-0.9,1.7c-0.3,0.6-0.5,1.2-0.6,1.9
			c-0.1,0.6-0.2,1.3-0.2,1.9c0,0.6,0.1,1.3,0.2,1.9c0.1,0.6,0.3,1.3,0.6,1.9c0.3,0.6,0.6,1.2,0.9,1.7c0.4,0.6,0.8,1.1,1.2,1.5
			c0.5,0.5,1,0.9,1.5,1.2c0.5,0.4,1.1,0.7,1.7,0.9c0.6,0.3,1.2,0.4,1.9,0.6c0.6,0.1,1.3,0.2,1.9,0.2c0.6,0,1.3-0.1,2-0.2
			c0.6-0.1,1.3-0.3,1.9-0.6c0.6-0.3,1.2-0.6,1.7-0.9c0.5-0.4,1.1-0.8,1.5-1.2c0.5-0.5,0.9-1,1.2-1.5c0.4-0.5,0.7-1.1,0.9-1.7
			c0.3-0.6,0.5-1.2,0.6-1.9s0.2-1.3,0.2-1.9C371.1,203.6,371,202.9,370.9,202.3z"/>
	</g>
</g>
<g>
	<g>
		<path class="st0" d="M158.8,461c-0.1-0.6-0.3-1.3-0.6-1.9c-0.3-0.6-0.6-1.2-0.9-1.7c-0.4-0.5-0.8-1.1-1.2-1.5
			c-0.5-0.5-1-0.9-1.5-1.2c-0.5-0.4-1.1-0.7-1.7-0.9c-0.6-0.3-1.2-0.4-1.9-0.6c-1.3-0.3-2.6-0.3-3.9,0c-0.6,0.1-1.3,0.3-1.9,0.6
			c-0.6,0.3-1.2,0.6-1.7,0.9c-0.6,0.4-1.1,0.8-1.5,1.2c-0.5,0.5-0.9,1-1.3,1.5c-0.4,0.5-0.7,1.1-0.9,1.7s-0.4,1.2-0.6,1.9
			c-0.1,0.6-0.2,1.3-0.2,2c0,0.7,0.1,1.3,0.2,2c0.1,0.6,0.3,1.3,0.6,1.9c0.3,0.6,0.6,1.2,0.9,1.7c0.4,0.5,0.8,1,1.3,1.5
			c0.5,0.5,1,0.9,1.5,1.2c0.5,0.4,1.1,0.7,1.7,0.9c0.6,0.3,1.2,0.4,1.9,0.6c0.6,0.1,1.3,0.2,2,0.2c0.6,0,1.3-0.1,1.9-0.2
			c0.6-0.1,1.3-0.3,1.9-0.6c0.6-0.3,1.2-0.6,1.7-0.9c0.6-0.4,1.1-0.8,1.5-1.2c0.5-0.5,0.9-1,1.2-1.5c0.4-0.5,0.7-1.1,0.9-1.7
			s0.4-1.2,0.6-1.9c0.1-0.6,0.2-1.3,0.2-2C159,462.3,158.9,461.7,158.8,461z"/>
	</g>
</g>
<g>
	<g>
		<path class="st0" d="M380.2,260.9c0-8.5-3.3-16.4-9.4-22.4c-6-5.9-14.2-9.2-22.5-9.1c-2.5,0-5,0.4-7.5,1c-0.1,0-0.2,0-0.3,0.1
			c-18.4,4.7-36.6,11-54.1,18.7c-9.9-2.4-20.2-3.5-30.5-3.5c-5.8,0-11.6,0.4-17.3,1.1c-4.4,0.6-8.8,1.4-13.1,2.4
			c-1.1-0.5-2.3-1-3.5-1.5c-16.4-7-33.4-12.8-50.6-17.2c-0.1,0-0.2,0-0.3-0.1c-9.8-2.5-20-0.3-27.8,6.2c-7.9,6.4-12,16-11.5,26.1
			c0.5,10.3,1.6,20.8,3.1,31.1c1.3,9.2,3.1,18.4,5.1,27.5c-3.1,7.9-5.3,16.2-6.4,24.6c-0.5,3.5-0.7,7.1-0.7,10.6
			c0,44.8,39,81.2,87,81.2h72.2c26.3,0,50.9-10.9,67.5-30c15.2-17.5,21.9-39.4,18.8-61.8c-0.7-4.8-1.7-9.5-3-14.2
			c-1-3.5-2.1-7-3.5-10.4c4.4-19.2,7.2-38.9,8.2-58.6C380.2,262.1,380.2,261.5,380.2,260.9z M360.2,261.5
			C360.2,261.5,360.2,261.5,360.2,261.5c-1,19.6-3.9,39.1-8.4,58.2c-0.5,2.1-0.3,4.3,0.5,6.2c1.5,3.6,2.8,7.3,3.9,11
			c1.1,3.8,1.9,7.7,2.4,11.6c2.3,16.6-2.7,32.9-14,45.9c-12.8,14.7-31.9,23.1-52.4,23.1h-72.2c-37,0-67-27.4-67-61.2
			c0-2.6,0.2-5.2,0.5-7.9c1.1-7.7,3.2-15.3,6.3-22.6c0.8-2,1-4.2,0.5-6.2c-2.3-9.5-4.1-19.3-5.5-28.9c-1.4-9.7-2.4-19.5-2.9-29.3
			c-0.2-3.7,1.3-7.2,4.2-9.6c2.1-1.7,4.7-2.6,7.3-2.6c0.9,0,1.8,0.1,2.7,0.3c0.1,0,0.1,0,0.2,0.1c16.3,4.1,32.4,9.6,47.9,16.3
			c2.3,1,4.3,1.9,6.3,2.8c2.1,1,4.5,1.2,6.7,0.6c4.6-1.2,9.3-2.2,14.1-2.8c4.9-0.6,9.8-1,14.7-1c9.8,0,19.5,1.3,28.8,3.8
			c2.2,0.6,4.6,0.4,6.7-0.6c17.5-7.9,35.7-14.4,54.2-19.1c0.1,0,0.1,0,0.2-0.1c0.9-0.2,1.7-0.3,2.6-0.3c0,0,0.1,0,0.1,0
			c3,0,5.9,1.2,8.1,3.4c2.2,2.2,3.4,5.1,3.4,8.2C360.2,261.1,360.2,261.3,360.2,261.5z"/>
	</g>
</g>
<g>
	<g>
		<path class="st0" d="M274.8,371.8c-4.8,0-8.8-3.9-8.8-8.8c0-5.5-4.5-10-10-10c-5.5,0-10,4.5-10,10v0.4c0,4.8-3.9,8.8-8.8,8.8
			c-5.5,0-10,4.5-10,10s4.5,10,10,10c7.3,0,13.9-2.7,19-7.2c5,4.2,11.5,6.8,18.5,6.8c5.5,0,10-4.5,10-10
			C284.8,376.2,280.3,371.8,274.8,371.8z"/>
	</g>
</g>
<g>
	<g>
		<path class="st0" d="M221,325.7l-14.9-6.8c-2.6-1.2-5.7-1.2-8.3,0l-14.9,6.8c-5,2.3-7.2,8.2-4.9,13.3c1.7,3.7,5.3,5.8,9.1,5.8
			c1.4,0,2.8-0.3,4.2-0.9L202,339l10.7,4.9c5,2.3,11,0.1,13.3-4.9C228.3,333.9,226.1,328,221,325.7z"/>
	</g>
</g>
<g>
	<g>
		<path class="st0" d="M329,325.7l-14.9-6.8c-2.6-1.2-5.7-1.2-8.3,0l-14.9,6.8c-5,2.3-7.2,8.2-4.9,13.3c2.3,5,8.2,7.2,13.3,4.9
			L310,339l10.7,4.9c1.4,0.6,2.8,0.9,4.2,0.9c3.8,0,7.4-2.2,9.1-5.8C336.2,333.9,334,328,329,325.7z"/>
	</g>
</g>
</svg>
